<?xml version="1.0" encoding="UTF-8"?>
<svg width="296px" height="275px" viewBox="0 0 296 275" version="1.1" xmlns="http://www.w3.org/2000/svg" xmlns:xlink="http://www.w3.org/1999/xlink">
    <!-- Generator: Sketch 58 (84663) - https://sketch.com -->
    <title>Artboard</title>
    <desc>Created with Sketch.</desc>
    <defs>
        <linearGradient x1="45.1076331%" y1="93.0327932%" x2="33.7127314%" y2="3.54772651%" id="linearGradient-1">
            <stop stop-color="#CD6100" offset="0%"></stop>
            <stop stop-color="#9F3200" offset="100%"></stop>
        </linearGradient>
        <linearGradient x1="96.8497454%" y1="66.5479636%" x2="8.37091726%" y2="53.5755275%" id="linearGradient-2">
            <stop stop-color="#D56800" offset="0%"></stop>
            <stop stop-color="#6E3503" offset="100%"></stop>
        </linearGradient>
    </defs>
    <g id="Artboard" stroke="none" stroke-width="1" fill="none" fill-rule="evenodd">
        <path d="M225.566612,113.724433 C228.19593,114.438253 230.452991,115.654031 232.337797,117.371766 C239.722451,124.101837 240.465381,123.831285 242.144079,123.966561 C243.822778,124.101837 247.429152,119.653698 238.681073,111.706225 C236.822349,110.017608 234.355877,109.093207 231.281659,108.933022 L225.566612,113.724433 Z" id="Path-55" fill="#EF4F4F"></path>
        <path d="M183.38999,65.2789845 C170.715981,37.7989739 161.692641,24.3769647 156.319968,25.012957 C150.947296,25.6489492 149.020161,40.9587108 150.538564,70.9422417 L183.38999,65.2789845 Z" id="Path-54" fill="url(#linearGradient-1)"></path>
        <path d="M188.66238,142.396793 C189.852597,130.214223 191.305107,123.666395 193.01991,122.753312 C195.19703,121.594058 217.514421,120.177549 232.826357,108.105434 C239.830175,102.58354 243.166858,88.129037 241.868643,84.7959376 C241.306347,83.3522735 229.096969,83.3522735 207.529662,81.5006584 C201.726254,81.0024192 194.205044,67.0765892 188,65.1955367 C183.590009,63.8590527 178.743186,63.1908107 173.459533,63.1908107 L113.420992,117.4955 L188.66238,142.396793 Z" id="Path-50" stroke="#BCA584" stroke-width="2" fill="#FBEFD6"></path>
        <path d="M157.650992,205 C158.009745,208.802956 158.009745,211.353218 157.650992,212.650785 C155.79759,219.354322 153.759541,221.690716 155.948589,224.394526 C160.185535,229.627807 169.095115,231.072203 175.559272,225.455846 C179.86871,221.711608 179.86871,214.892993 175.559272,205 L157.650992,205 Z" id="Path-49" stroke="#BCA584" stroke-width="2" fill="#CCBA97" transform="translate(166.895675, 217.023719) scale(-1, 1) translate(-166.895675, -217.023719) "></path>
        <path d="M89.6959619,215.252342 C90.0547148,219.055298 90.0547148,221.60556 89.6959619,222.903127 C87.8425595,229.606664 85.8045103,231.943057 87.9935581,234.646868 C92.2305042,239.880148 101.140085,241.324544 107.604242,235.708188 C111.91368,231.96395 111.91368,225.145335 107.604242,215.252342 L89.6959619,215.252342 Z" id="Path-49" stroke="#BCA584" stroke-width="2" fill="#EBDDC2"></path>
        <path d="M142.650992,215 C143.009745,218.802956 143.009745,221.353218 142.650992,222.650785 C140.79759,229.354322 138.759541,231.690716 140.948589,234.394526 C145.185535,239.627807 154.095115,241.072203 160.559272,235.455846 C164.86871,231.711608 164.86871,224.892993 160.559272,215 L142.650992,215 Z" id="Path-49" stroke="#BCA584" stroke-width="2" fill="#EBDDC2" transform="translate(151.895675, 227.023719) scale(-1, 1) translate(-151.895675, -227.023719) "></path>
        <path d="M126.133949,106.028573 L134.037278,95.8066756 C123.834736,89.442776 117.370109,83.3930723 114.643399,77.6575646 C104.992966,57.3583275 106.147841,33.9774356 113.14518,33.0603869 C123.108144,31.7546729 139.04399,42.1879143 160.952715,64.3601111 C168.322614,62.1595789 173.735189,61.1915844 177.190438,61.4561277 C195.696784,62.8730236 203.625824,75.7534525 199.459819,87.4362638 C191.523073,100.698987 180.668359,107.864573 166.895675,108.933022 C155.846594,105.200206 147.870917,102.856908 142.968645,101.903127 C138.066373,100.949345 132.454808,102.324494 126.133949,106.028573 Z" id="Path-53" fill="url(#linearGradient-2)"></path>
        <path d="M234.317835,108.083076 C232.713762,109.327118 231.361947,110.318139 230.26239,111.056137 C229.162832,111.794135 227.735437,112.683567 225.980205,113.724433 C214.967536,114.933723 207.698674,114.933723 204.173619,113.724433 C193.458866,110.048677 187.680985,101.321535 191.079176,100.115402 C194.477367,98.9092694 196.433519,110.754169 208.800855,111.898948 C218.886904,112.832561 227.392564,111.560603 234.317835,108.083076 Z" id="Path-51" fill="#000000"></path>
        <path d="M241.445028,95.8066756 C235.355472,94.0841941 231.387945,92.321268 229.542449,90.5178971 C227.696953,88.7145262 227.507519,85.8855494 228.974147,82.0309669 C237.650899,81.8526456 242.461051,82.4444655 243.404603,83.8064266 C244.348156,85.1683877 243.694964,89.1684707 241.445028,95.8066756 Z" id="Path-52" fill="#000000"></path>
        <circle id="Oval" fill="#FFFFFF" cx="186" cy="84" r="5"></circle>
        <ellipse id="Oval" fill="#000000" cx="183.5" cy="83.5" rx="4.5" ry="6.5"></ellipse>
        <path d="M232.52915,112.821024 C234.7946,113.746935 236.420702,114.648792 237.407453,115.526595 C238.394205,116.404398 239.33608,117.786984 240.233079,119.674354" id="Path-56" stroke="#000000"></path>
    </g>
</svg>