<?xml version="1.0" encoding="UTF-8"?>
<svg width="139px" height="122px" viewBox="0 0 139 122" version="1.1" xmlns="http://www.w3.org/2000/svg" xmlns:xlink="http://www.w3.org/1999/xlink">
    <!-- Generator: Sketch 58 (84663) - https://sketch.com -->
    <title>Group</title>
    <desc>Created with Sketch.</desc>
    <defs>
        <radialGradient cx="48.3933191%" cy="18.7988583%" fx="48.3933191%" fy="18.7988583%" r="76.3866818%" gradientTransform="translate(0.483933,0.187989),scale(0.857845,1.000000),rotate(92.259260),translate(-0.483933,-0.187989)" id="radialGradient-1">
            <stop stop-color="#883C00" offset="0%"></stop>
            <stop stop-color="#D78A03" offset="100%"></stop>
        </radialGradient>
    </defs>
    <g id="Page-1" stroke="none" stroke-width="1" fill="none" fill-rule="evenodd">
        <g id="Artboard" transform="translate(-59.000000, -101.000000)">
            <g id="Group" transform="translate(59.398382, 101.903127)">
                <path d="M64.6690144,104.118204 C79.3014031,104.118204 96.8587573,120.56212 107.125092,115.255989 C126.695677,105.140977 137.695942,86.578422 137.695942,64.1186909 C137.695942,25.73465 109.146087,1.13686838e-13 66.6201613,1.13686838e-13 C24.0942356,1.13686838e-13 9.9475983e-14,29.8770364 9.9475983e-14,64.1186909 C9.9475983e-14,85.572706 10.333021,105.069809 28.5104163,116.640176 C39.3450304,123.536679 48.7875913,104.118204 64.6690144,104.118204 Z" id="Oval" fill="url(#radialGradient-1)"></path>
                <path d="M65.5991704,111.558662 C69.598744,115.053061 73.1234764,117.24075 76.1733676,118.121728 C86.6654696,121.152432 99.6057925,121.18713 106.550384,115.79283 C117.738085,107.102638 123.991608,94.8554821 123.991608,82.0075165 C123.991608,70.5085143 118.250769,58.7965222 108.302769,49.6699768 C107.980763,49.3745605 112.179371,51.7619266 113.733963,53.3873873 C117.484158,57.3085387 122.364541,61.0517941 121.691872,60.5122312 C121.060673,60.0059318 110.968204,46.5008919 104.948599,45.3125796 C100.308869,44.3966644 102.394387,44.908598 101.870294,44.5466484 C99.7627104,43.0911054 97.5255038,41.739973 95.1679613,40.5101968 C92.9622209,39.3596058 111.739611,42.7965616 109.230577,41.8723112 C108.018088,41.4256679 101.900136,36.9095692 95.1679613,35.5968735 C91.9339039,34.9662699 83.9659115,35.223633 83.3321054,35.0506146 C80.5531294,34.2920011 76.3353471,34.2873852 73.3849115,33.767211 C72.6171836,33.6318573 73.042902,32.4131303 76.1733676,32.0994858 C81.2381195,31.5920434 90.1728617,33.2714208 88.601618,32.0994858 C87.8696649,31.5535479 80.0137898,28.1696786 73.3849115,28.4465961 C68.9183244,28.6331852 56.883952,35.9323196 56.0588948,35.9525346 C50.6962291,36.0839271 46.4297635,31.3661863 41.9565679,32.2880919 C41.0307378,32.4789014 34.3142813,31.6504049 30.1584792,32.2880919 C24.4020804,33.1713825 20.8059927,35.5879913 19.6448733,35.9525346 C17.7208334,36.5566033 34.609132,34.8449866 32.8737569,35.5968735 C31.108825,36.3615665 25.1032803,37.5127587 18.2900793,41.0914352 C11.4768782,44.6701117 7.30583555,51.8595827 5.91730166,52.7729838 C4.44945845,53.7385561 9.37308916,50.9133463 12.661395,48.5850362 C14.8357786,47.0454472 17.9493088,44.7950033 17.3919242,45.3125796 C7.98155657,54.0508614 3.5997315,65.5739741 3.5997315,77.5197095 C3.5997315,90.9280942 11.6343317,105.048443 24.8535674,115.012836 C29.2707585,118.342425 42.6265995,119.777618 51.9342283,118.121728 C55.7857989,117.436508 60.3407796,115.248819 65.5991704,111.558662 Z" id="Oval" fill="#FBEFD6"></path>
                <path d="M62.7351857,109.522219 L64.8933208,112.638935 C52.0406253,119.305311 40.6454879,120.808067 30.7079086,117.147202 C18.862337,113.474422 10.0360531,102.92214 4.22905691,85.4903582 C10.6132831,102.008855 19.7298369,111.964158 31.5787183,115.356267 C43.4275997,118.748375 53.8130889,116.803693 62.7351857,109.522219 Z" id="Path-45" fill="#BCA584"></path>
                <path d="M117.792056,110.266671 C100.796965,120.563864 85.5924691,122.674662 72.1785691,116.599065 C58.7646692,110.523468 53.320127,98.3392567 55.8449425,80.0464302 C58.0861111,98.6851648 63.9634903,110.076084 73.47708,114.219187 C82.9906697,118.36229 97.7623285,117.044785 117.792056,110.266671 Z" id="Path-46" fill="#BCA584"></path>
                <path d="M55.2450171,90.1811112 C52.6089908,85.7049662 51.1423136,81.2368269 50.8449855,76.7766932 C50.5476574,72.3165595 51.2508013,65.3311567 52.9544174,55.8204847 C49.7887124,62.9688298 48.2058599,69.700895 48.2058599,76.0166803 C48.2058599,82.3324656 50.8814087,89.5712061 56.2325062,97.7329017 L55.2450171,90.1811112 Z" id="Path-47" fill="#BCA584"></path>
                <path d="M45.6130068,22.1944296 C44.5974432,28.591945 46.799502,31.7907027 52.2191831,31.7907027 C57.6388642,31.7907027 64.6383245,29.0833039 73.2175642,23.6685062 C68.7904093,32.3966615 61.7909489,36.3727839 52.2191831,35.5968735 C42.6474172,34.8209631 40.4453585,30.3534817 45.6130068,22.1944296 Z" id="Path-48" fill="#4F2803"></path>
            </g>
        </g>
    </g>
</svg>