<?xml version="1.0" encoding="UTF-8"?>
<svg width="200px" height="200px" viewBox="0 0 200 200" version="1.1" xmlns="http://www.w3.org/2000/svg" xmlns:xlink="http://www.w3.org/1999/xlink">
    <!-- Generator: Sketch 58 (84663) - https://sketch.com -->
    <title>Dog Head</title>
    <desc>Created with Sketch.</desc>
    <g id="Dog-Head" stroke="none" stroke-width="1" fill="none" fill-rule="evenodd">
        <circle id="Oval" stroke="#000000" stroke-width="2" fill="#8C492E" cx="99" cy="112" r="64"></circle>
        <circle id="Oval" stroke="#000000" stroke-width="2" fill="#FFFFFF" cx="77" cy="92" r="14"></circle>
        <circle id="Oval" fill="#000000" cx="79" cy="94" r="4"></circle>
        <circle id="Oval" stroke="#000000" stroke-width="2" fill="#FFFFFF" cx="121" cy="92" r="14"></circle>
        <circle id="Oval" fill="#000000" cx="120" cy="94" r="4"></circle>
        <path d="M99,151.312566 C105.5,151.625132 113.932971,146.63049 116,139.726931 C118.067029,132.823372 116.5,128.130001 100,128.130001 C83.5,128.130001 81.2204515,132.823372 83,139.726931 C84.7795485,146.63049 92.5,151 99,151.312566 Z" id="Oval" fill="#000000"></path>
        <path d="M54.4183413,67.3584456 C60.1641689,72.8973713 46.5515071,95.5941105 40.6825351,107.203172 C34.8135631,118.812233 40.6825351,141.854982 15.2252828,139.661733 C-10.2319696,137.468483 10.7787286,99.4100421 18.3169196,89.1720717 C29.4601387,74.0379437 48.6725137,61.8195198 54.4183413,67.3584456 Z" id="Path-25" stroke="#000000" stroke-width="2" fill="#5A2600"></path>
        <path d="M193.418341,67.3584456 C199.164169,72.8973713 185.551507,95.5941105 179.682535,107.203172 C173.813563,118.812233 179.682535,141.854982 154.225283,139.661733 C128.76803,137.468483 149.778729,99.4100421 157.31692,89.1720717 C168.460139,74.0379437 187.672514,61.8195198 193.418341,67.3584456 Z" id="Path-25" stroke="#000000" stroke-width="2" fill="#5A2600" transform="translate(168.401813, 102.903927) scale(-1, 1) translate(-168.401813, -102.903927) "></path>
        <path d="" id="Path-26" stroke="#979797"></path>
        <path d="M58.5649413,160.380617 C82.5173798,168.66311 102.168239,170.425567 117.517518,165.667989 C140.541436,158.531623 156.605116,134.099552 158.280107,132.689143 C158.280107,134.823879 151.616814,162.089116 117.517518,172.11524 C94.784653,178.799323 75.1337943,174.887782 58.5649413,160.380617 Z" id="Path-27" fill-opacity="0.389832823" fill="#5A2600"></path>
        <path d="M155.732662,69.5494787 C168.519391,87.8716874 176.049091,100.355195 178.321761,107 C184.393576,124.752703 184.536987,135.739574 185.682056,137.937926 C195.41763,134.908518 198.405232,128.612534 187.985056,105.390542 C181.038272,89.9092132 170.287474,77.9621922 155.732662,69.5494787 Z" id="Path-28" fill="#421D01"></path>
    </g>
</svg>