<?xml version="1.0" encoding="UTF-8"?>
<svg width="200px" height="200px" viewBox="0 0 200 200" version="1.1" xmlns="http://www.w3.org/2000/svg" xmlns:xlink="http://www.w3.org/1999/xlink">
    <!-- Generator: Sketch 58 (84663) - https://sketch.com -->
    <title>Dog</title>
    <desc>Created with Sketch.</desc>
    <g id="Dog" stroke="none" stroke-width="1" fill="none" fill-rule="evenodd">
        <polygon id="Path-13" fill="#FFF7F7" points="32.0803801 87.5977951 13.7125751 81.1941618 15.3064785 87.5977951 21.0245991 91.1090599 28.0901063 91.9768672"></polygon>
        <path d="M13.7125751,81.1941618 L31.2208976,87.5977951 L38.96128,83.3283788 L28.5022943,76.4992871 C24.0881457,76.7880971 20.964015,77.2236142 19.1299021,77.8058382 C17.2957891,78.3880623 15.4900135,79.5175035 13.7125751,81.1941618 Z" id="Path-12" fill="#E18F33"></path>
        <path d="M18.3779677,127.220966 C23.3824888,137.133563 56.8129402,145.338015 94.6606715,145.338015 C135.74547,145.338015 149,141.45076 149,128.5 C149,121.377015 139.362321,108.183921 125.60862,97.138682 C109.500053,84.2023121 90.7610395,76.1946267 73.2674941,76.1946267 C54.184289,76.1946267 37.2973826,81.6486357 28.8591187,91.1635111 C24.3205766,96.2811114 21.4235433,102.89145 19.8430429,110.632279 C18.7321052,116.073327 18.3862407,121.044224 18.3779677,127.220966 Z" id="Oval" stroke="#000000" stroke-width="2" fill="#E18F33"></path>
        <path d="M27.9048721,116.114722 C26.781307,117.357433 26.2195244,118.533437 26.2195244,119.642734 C26.2195244,120.067813 27.0899102,121.346069 28.6092074,122.821932 C28.9336699,123.137119 30.4319081,126.529569 28.6092074,128.753589 C27.745475,129.807496 29.7454758,129.752766 31.5621987,132.631573 C31.9982158,133.322492 32.2162244,135.181217 32.2162244,138.207747 C20.6732264,140.350384 13.3497534,140.624418 10.2458054,139.029849 C6.54889377,137.130661 3.77466621,130.334642 2.07700571,127.076271 C-1.75870287,119.714279 6.85058592,116.06043 27.9048721,116.114722 Z" id="Path-14" fill="#FFFFFF"></path>
        <path d="M87.1337077,131.463695 C85.6301959,132.967257 84.87844,134.159304 84.87844,135.039836 C84.87844,135.377254 85.6358855,136.391901 86.9580407,137.563403 C87.2404013,137.813591 88.54423,140.506431 86.9580407,142.271802 C86.2063851,143.108367 86.836905,144.991249 89.2959742,145.935198 C91.4307398,146.754657 91.8866007,148.349857 90.6635566,150.720796 C85.3939753,153.40862 81.9287528,154.832303 80.2678889,154.991845 C75.1040276,155.487884 73.7347003,152.638356 71.9125905,151.784546 C68.6953856,150.277019 67.8304756,138.435 69.1411208,135.731598 C69.8519014,134.265506 72.7021809,130.799423 75.7845425,130.228997 C77.6745355,129.879232 81.4575906,130.290798 87.1337077,131.463695 Z" id="Path-14" fill="#FFFFFF" transform="translate(79.942725, 142.578942) rotate(-21.000000) translate(-79.942725, -142.578942) "></path>
        <path d="M97.940785,141.895392 C84.0024741,157.187533 74.3712882,158.668407 69.0472273,146.338015 C63.7231664,134.007624 71.3420212,128.369964 91.9037919,129.425036" id="Path-9" stroke="#000000" stroke-width="2" transform="translate(82.672738, 141.947266) rotate(-12.000000) translate(-82.672738, -141.947266) "></path>
        <path d="M33.5236086,117.5 C7.07146145,113.465478 -3.20178035,117.756311 2.70388315,130.372501 C8.60954666,142.988691 20.0991509,144.188012 37.1726957,133.970464" id="Path-10" stroke="#000000" stroke-width="2"></path>
        <path d="M38.96128,83.4073883 C33.1670521,79.1058382 28.9754453,76.8031378 26.3864595,76.4992871 C21.1593019,75.885813 15.3818259,79.0737026 14.2827776,79.9400553 C12.9079467,81.0238007 13.8312758,87.2469055 19.1299021,90.4778623 C20.5192696,91.3250605 23.5060043,91.8247288 28.0901063,91.9768672" id="Path-11" stroke="#000000" stroke-width="2"></path>
        <path d="M90.7670517,108.361776 C90.7659289,108.361602 90.7648098,108.361433 90.7636944,108.361267 C90.7668221,108.361731 90.7727591,108.360826 90.7806752,108.35871 Z M90.8891726,108.392452 C90.8449949,108.553917 90.8108981,108.829472 90.8108981,109.21935 C90.8108981,111.208161 91.8812273,113.923971 93.955669,117.576846 C94.4433053,118.435523 94.9784774,119.334966 95.6354897,120.408016 C95.9000939,120.840174 97.5722807,123.53748 98.0176654,124.27309 C98.8707255,125.682027 99.4646051,126.737157 99.9019158,127.650346 C100.275887,128.431271 99.7982661,129.209597 98.9916621,129.313913 C98.6950743,129.35227 98.3677613,129.310112 97.9325921,129.208922 C97.3669246,129.077386 96.7398025,128.879506 95.4840222,128.455044 C95.4502597,128.443631 95.4502597,128.443631 95.4165268,128.432224 C95.080726,128.318662 94.8006315,128.224375 94.5621245,128.145008 C102.665669,140.775538 118.882773,150.312566 134.479792,150.312566 C137.335428,150.312566 141.051631,149.767546 145.669566,148.751709 C147.311138,148.390602 149.038066,147.97696 150.984663,147.484504 C152.366743,147.134861 157.963704,145.666816 159.178944,145.367107 C170.989974,142.454206 175.668694,139.661785 179.386934,132.105402 C181.233434,128.352855 182,120.156132 182,111 C182,89.1764251 163.140549,71.8724132 138.60142,71.8724132 C137.694929,71.8724132 137.491358,71.4607446 136.846701,69.6037161 C136.555995,68.766293 136.50456,68.6013584 135.508944,65.3600654 C133.87114,60.0280811 132.672822,56.490876 131.094932,52.6754613 C125.81447,39.9070542 119.58406,33.2734165 111.939185,34.976084 C105.946754,36.3107188 103.017569,42.8654333 103.017569,57.1635045 C103.017569,61.570924 103.112109,64.972353 103.294843,68.5750462 C103.324678,69.1632568 103.470863,71.8303017 103.50185,72.4894818 C103.5627,73.7839478 103.585501,74.7597131 103.570123,75.7128124 C103.541459,77.489396 103.373107,79.2008226 103.003249,81.3627869 C102.898453,81.9753619 102.668288,82.5219343 102.302938,83.0947565 C102.235346,83.2007333 100.327546,85.65935 99.708454,86.7557692 C98.5691688,88.7734577 97.7249974,91.3836728 97.1941791,95.060873 C96.5957336,99.2065555 96.6966483,102.680519 97.2534479,106.474284 C97.2987074,106.78266 97.3455186,107.085682 97.4046632,107.457064 C97.4112241,107.498262 97.515463,108.14804 97.542768,108.321863 C97.6460157,108.979137 97.6990103,109.382517 97.7214048,109.734558 C97.8025547,111.010233 97.3509641,111.929637 96.0710597,111.757386 C95.2857644,111.651701 94.8772361,111.361839 93.0035373,109.843069 C92.8882014,109.74958 92.7940293,109.673614 92.7039566,109.60152 C91.826684,108.899349 91.2365219,108.507381 90.8891726,108.392452 Z" id="Oval" stroke="#000000" stroke-width="2" fill="#E18F33"></path>
        <path d="M139.875521,73.0166359 C142.221436,72.8282801 145.268553,73.1441897 149.016871,73.9643645 C152.765188,74.7845393 155.562468,75.6917437 157.408709,76.6859775 C156.066742,80.0228998 155.52113,83.4454014 155.771873,86.9534823 C156.022616,90.4615633 159.114067,99.8277419 165.046226,115.052018 C171.59155,117.317211 176.569792,119.383553 179.980952,121.251044 C183.392112,123.118535 188.2607,126.698081 194.586716,131.989683 C197.301049,138.388671 196.985602,142.682801 193.640373,144.872073 C190.295143,147.061345 183.548308,149.616192 173.399867,152.536614 C169.699473,152.889968 166.914926,153.042122 165.046226,152.993076 C163.177527,152.94403 160.750579,152.655094 157.765384,152.12627 L150,147.642703 C142.485599,148.818802 137.260353,149.379748 134.324263,149.32554 C122.518206,149.107568 117.377982,145.647196 116.659726,145.240186 C115.941469,144.833177 112.279323,140.576285 110.619978,134.689827 C109.374872,130.272868 109.112128,126.598854 110.001685,124.567618 C110.891243,122.536381 113.544319,119.907353 120.270891,119.998632 C128.606034,120.111738 140.381483,124.850636 144.869733,122.536381 C152.980062,118.354492 154.39292,112.77154 152.512486,102.593295 C151.258863,95.8077984 147.046541,85.9489119 139.875521,73.0166359 Z" id="Path-16" fill="#FFFFFF"></path>
        <path d="M165.883356,114.275779 C186.263971,123.289899 196.454278,131.16731 196.454278,137.90801 C196.454278,148.019061 172.547211,153.246359 168.348739,153.246359 C164.150266,153.246359 158.166242,154.436436 151.985182,149.278422 C150.33944,147.905072 147.447339,144.114934 143.30888,137.90801" id="Path-15" stroke="#000000" stroke-width="2"></path>
        <path d="M183,145.213012 C186.023735,144.643181 194.586716,137.102567 194.586716,134.065 C194.586716,131.027434 187.012956,128.130001 183.321422,128.130001 C179.629889,128.130001 169.881579,130.401358 169.881579,133.820392 C169.881579,137.239426 179.976265,145.782843 183,145.213012 Z" id="Oval" fill="#000000"></path>
        <path d="M132.228194,111.085246 C134.15973,115.215997 137.070085,117.281372 140.95926,117.281372 C144.848434,117.281372 147.758789,115.498771 149.690325,111.933567" id="Path-17" stroke="#000000" stroke-width="2" transform="translate(140.959260, 114.183309) rotate(3.000000) translate(-140.959260, -114.183309) "></path>
        <path d="M166.035245,108.771494 C167.583825,112.104828 169.917158,113.771494 173.035245,113.771494 C176.153332,113.771494 178.163233,112.252373 179.064949,109.21413" id="Path-17" stroke="#000000" stroke-width="2" transform="translate(172.550097, 111.271494) rotate(-14.000000) translate(-172.550097, -111.271494) "></path>
        <path d="M155.95193,74.4768066 C165.632999,48.7970456 173.474434,39.2893799 179.476235,45.9538095 C185.478035,52.6182392 185.478035,69.1650062 179.476235,95.5941105 C174.93358,88.6529407 171.275859,84.0054735 168.503073,81.6517087 C165.730287,79.297944 161.546573,76.90631 155.95193,74.4768066 Z" id="Path-18" stroke="#000000" stroke-width="2" fill="#E18F33"></path>
        <path d="M111.262675,77.0795642 C114.471243,74.7933027 117.144909,73.4214043 119.283671,72.9638692 C121.422433,72.506334 124.250043,72.506334 127.766501,72.9638692 C123.896688,53.5839757 119.852613,43.894029 115.634277,43.894029 C111.415941,43.894029 109.95874,54.9558741 111.262675,77.0795642 Z" id="Path-19" stroke="#000000" stroke-width="2" fill="#FF3030"></path>
        <path d="M163.139151,88.0969141 C166.751222,84.7381337 169.358214,82.6685945 170.960128,81.8882962 C172.562041,81.1079979 175.108836,80.0149782 178.600511,78.609237 C176.186358,60.7371731 173.114484,51.8011411 169.384889,51.8011411 C165.655293,51.8011411 163.573381,63.8997321 163.139151,88.0969141 Z" id="Path-19" stroke="#000000" stroke-width="2" fill="#FF3030" transform="translate(170.869831, 69.949028) scale(-1, 1) rotate(-11.000000) translate(-170.869831, -69.949028) "></path>
        <path d="M96.3810431,142.578942 L107.529006,142.578942 L110.085089,144.131551 C106.809353,144.238805 104.336604,144.303324 102.666843,144.325108 C100.997082,144.346891 98.5243331,144.346891 95.2485973,144.325108 L96.3810431,142.578942 Z" id="Path-20" fill="#FFFFFF"></path>
        <path d="M66.174464,142.844766 C59.474939,141.984587 54.0929828,141.150935 50.0285952,140.343813 C45.9642077,139.53669 40.9733096,138.198806 35.055901,136.330161 L37.1726957,135.120928 C43.7056057,137.026971 48.6585178,138.314277 52.0314322,138.982847 C55.4043466,139.651417 60.0625424,140.41486 66.0060198,141.273175 L66.174464,142.844766 Z" id="Path-21" fill="#FFFFFF"></path>
    </g>
</svg>