<?xml version="1.0" encoding="UTF-8"?>
<svg width="160px" height="185px" viewBox="0 0 160 185" version="1.1" xmlns="http://www.w3.org/2000/svg" xmlns:xlink="http://www.w3.org/1999/xlink">
    <!-- Generator: Sketch 58 (84663) - https://sketch.com -->
    <title>Doge</title>
    <desc>Created with Sketch.</desc>
    <g id="Doge" stroke="none" stroke-width="1" fill="none" fill-rule="evenodd">
        <path d="M71,34.1134455 C64.6064967,30.7597882 59.6641446,27.7775513 56.1729437,25.1667348 C43.8008293,15.9145255 31.3547065,6 22.4823163,6 C12.0003495,6 12.1068157,18.2330012 25.5043562,39.8220506 C27.332863,42.7685408 31.0264674,47.1611906 36.5851695,53 L71,34.1134455 Z" id="Path-41" fill="#DCB055"></path>
        <path d="M103,37.5479087 C122.041024,9.45382257 134.532862,-0.995102366 140.475513,6.20113388 C146.418163,13.3973701 146.50682,38.9969922 140.741482,83 L103,37.5479087 Z" id="Path-42" fill="#DCB055"></path>
        <circle id="Oval" fill="#DCB055" cx="80" cy="104" r="75"></circle>
        <ellipse id="Oval" fill-opacity="0.52420236" fill="#DFBF7A" cx="75.5" cy="103" rx="65.5" ry="70"></ellipse>
        <path d="M77.4249591,173 C118.051176,173 141,135.00875 141,106.13021 C141,91.6708452 131.454437,83.6661711 112.2096,86.6022648 C92.9647626,89.5383585 76.3591801,101.605102 61.5568481,101.605102 C31.9109252,101.605102 10,80.8246182 10,109.703158 C10,138.581697 36.798742,173 77.4249591,173 Z" id="Oval" fill="#DCC38D"></path>
        <path d="M50.9389686,69.1076267 L56.3740086,69 C59.9961349,75.4755622 62.7198745,82.2525459 64.5452276,89.3309512 C67.2144548,99.6817554 69.8841897,106.945057 72.6120973,115.880715 C74.4307025,121.83782 74.4620832,124.877582 72.7062396,125 L30,122.243407 C33.8151358,108.631958 36.9118218,97.661139 39.2900582,89.3309512 C41.6682945,81.0007635 45.5512646,74.2596553 50.9389686,69.1076267 Z" id="Path-35" fill="#E5CF85"></path>
        <path d="M32.4158265,155.619932 C31.0614843,149.57062 30.2691731,144.51684 30.038893,140.458592 C29.808613,136.400344 30.6009241,129.580813 32.4158265,120 L50.0848399,123.760888 C57.7777002,130.087729 63.2491799,136.532726 66.4992792,143.09588 C69.7493784,149.659034 73.582952,159.627074 78,173 C72.7667443,172.760076 68.9331707,172.440911 66.4992792,172.042504 C62.1342086,171.327979 58.0187255,169.925528 54.1973096,168.942636 C47.179756,167.137677 39.9192616,162.696775 32.4158265,155.619932 Z" id="Path-33" fill-opacity="0.556463068" fill="#BB923E"></path>
        <path d="M38.6536812,121 C46.657742,121 55.3602562,114.917013 50.6881922,105.000087 C46.0161281,95.0831623 46.657742,92 38.6536812,92 C30.6496204,92 29.3742524,92.5631575 26.6233478,100.435647 C23.8724432,108.308137 30.6496204,121 38.6536812,121 Z" id="Oval" fill="#B49E7F"></path>
        <path d="M50.5405978,128 C66.6587112,128 78,125.363207 78,122.785602 C78,120.207997 70.1859627,122.785602 54.0678492,122.785602 C48.0781527,122.785602 45.9001772,118.230654 37.302696,116.070666 C28.7052148,113.910679 25.7458688,115.330297 24.2810152,117.573466 C21.9498832,121.14319 34.4224843,128 50.5405978,128 Z" id="Oval" fill="#A28562"></path>
        <path d="M27.5025761,117.002325 C29.8339283,117.056575 31.9177042,118.865632 34.7663322,119.5 C37.6149603,120.134368 41.9537294,119.860954 43.3749098,120.279522 C44.7960902,120.698091 46.1795133,121.435039 43.3749098,121.786409 C40.5703063,122.13778 39.4073478,122.095474 34.7663322,121.358036 C30.1253166,120.620598 29.1490355,119.947298 27.5025761,118.899117 C25.8561167,117.850937 25.1712238,116.948075 27.5025761,117.002325 Z" id="Path-34" fill="#593E23"></path>
        <path d="M33.974528,90 C38.4748127,90 46.6026707,94.6857773 47.8144661,96.6486616 C49.0262615,98.6115459 44.0103192,107 41.2320184,107 C38.4537176,107 33.974528,107 31.1665378,107 C28.3585477,107 28.3585477,105.894157 26.7967301,103.684914 C25.7344233,101.67783 25.7344233,98.5 26.7967301,94.6857773 C28.3997151,91.6295876 29.4742433,90 33.974528,90 Z" id="Path-36" fill="#2F2F2F"></path>
        <path d="M30.2753986,95 C31.6733313,95 33.5832659,98.8401539 32.829754,100.04364 C32.076242,101.247126 27.7986367,101.388489 27.1175369,100.04364 C26.436437,98.6987911 28.8774658,95 30.2753986,95 Z" id="Path-37" fill="#000000"></path>
        <path d="M38.5621512,96.0093822 C37.5868826,95.8441673 36,97.8877174 36,100.025195 C36,100.956382 38.0169744,101.007322 39.4695257,101.676386 C41.3512074,102.543113 41.3512074,101.676386 40.2625155,98.9851795 C39.1738235,96.293973 39.5374197,96.1745972 38.5621512,96.0093822 Z" id="Path-38" fill="#000000"></path>
        <path d="M36.7337741,74.7022965 C41.6006611,73.5439006 44,70.4358171 44,68.4974632 C44,66.5591093 40.6272837,62.979488 35.7603967,62.1996898 C30.8935096,61.4198916 27,62.8215757 27,68.2235619 C27,73.6255481 31.866887,75.8606924 36.7337741,74.7022965 Z" id="Oval" fill="#000000"></path>
        <path d="M33.7749735,73.9988706 C36.1159856,73.9988706 29.8466528,74.2220824 29.3701815,68.3924494 C28.8937101,62.5628165 36.9116897,63.0078059 34.5706776,63.0078059 C32.2296655,63.0078059 27.6402521,63.6058959 28.0224665,68.1205501 C28.4046809,72.6352043 31.4339613,73.9988706 33.7749735,73.9988706 Z" id="Oval" fill="#FFFFFF"></path>
        <path d="M80,87 C86.627417,87 92,80.5021518 92,79.9437599 C92,79.3853679 86.627417,71 80,71 C73.372583,71 68,79.3853679 68,79.9437599 C68,80.5021518 73.372583,87 80,87 Z" id="Oval" fill="#000000"></path>
        <polygon id="Path-39" fill="#FFFFFF" points="91 79.4845645 89 78 89 81"></polygon>
        <path d="M76.2559048,83 C78.6567818,83 74.4795821,80.7504727 74.4795821,78.2651913 C74.4795821,75.7799099 78.6567818,74 76.2559048,74 C73.8550277,74 71,76.0147186 71,78.5 C71,80.9852814 73.8550277,83 76.2559048,83 Z" id="Oval" fill="#FFFFFF"></path>
        <path d="M56,63 C58.901668,54.5858899 61.4338141,48.5330696 63.5964384,44.8415389 C65.7590626,41.1500082 69.0852567,37.2028286 73.5750206,33 C81.0325566,33.3028493 86.0853136,33.7340281 88.7332917,34.2935363 C91.3812698,34.8530444 94.8035059,35.9875943 99,37.6971859 C83.9003643,39.0537052 73.4398093,42.4879765 67.6183349,48 C61.7968605,53.5120235 57.9240822,58.5120235 56,63 Z" id="Path-40" fill="#CEA840"></path>
        <path d="M36.5241567,44 C39.1032681,40.7799501 41.5434707,38.5928819 43.8447645,37.4387954 C46.1460583,36.284709 49.5311368,34.9383546 54,33.3997325 C50.1092596,28.6494213 46.7241811,25.274984 43.8447645,23.2764207 C39.5256396,20.2785756 32.7815324,17 30.372197,17 C27.9628616,17 29.2288199,24.6957895 30.372197,29.3726218 C31.1344484,32.49051 33.1851017,37.3663027 36.5241567,44 Z" id="Path-43" fill="#BE8E58"></path>
        <path d="M114,37.2181498 C117.977345,39.1720525 121.280915,41.1924283 123.910711,43.2792772 C126.540508,45.3661262 129.866239,48.6063671 133.887905,53 C135.959853,44.4595722 136.995827,37.6992001 136.995827,32.7188838 C136.995827,25.2484094 137.245218,18.4057399 133.887905,16.3808408 C130.530592,14.3559417 125.35408,20.8775297 121.584705,24.826846 C119.071788,27.4597236 116.543553,31.5901582 114,37.2181498 Z" id="Path-44" fill="#BE8E58"></path>
    </g>
</svg>