<?xml version="1.0" encoding="UTF-8"?>
<svg width="200px" height="200px" viewBox="0 0 200 200" version="1.1" xmlns="http://www.w3.org/2000/svg" xmlns:xlink="http://www.w3.org/1999/xlink">
    <!-- Generator: Sketch 58 (84663) - https://sketch.com -->
    <title>Hot Dog</title>
    <desc>Created with Sketch.</desc>
    <g id="Hot-Dog" stroke="none" stroke-width="1" fill="none" fill-rule="evenodd">
        <circle id="Oval" fill="#B36800" cx="56.5" cy="124.5" r="1.5"></circle>
        <path d="M101.084665,86.9968216 C42.2898589,103.183294 13.1595079,109.282238 13.6936122,105.293652 C14.4947686,99.3107741 16.2748069,90.3460228 19.2470167,86.9968216 C20.7245542,85.3318751 60.3959097,78.8720817 87.8206736,66.9288371 C115.56348,54.8470878 131.088302,37.2900564 137.019284,37.2900564 C144.881933,37.2900564 152.746781,40.8116672 160.613829,47.8548888 L101.084665,86.9968216 Z" id="Path-2" stroke="#000000" stroke-width="2" fill="#D77F00"></path>
        <path d="M20.7711811,65.2944471 C23.6474579,64.0999979 48.6791851,72.4726101 91.9485803,77.885586 C104.196565,79.4178017 125.556636,80.2239393 156.028794,80.3039986 L166.483949,92.0428445 C137.09383,94.0681552 113.914574,94.3033343 96.9461808,92.7483819 C79.9777877,91.1934295 53.041653,86.3657679 16.1377767,78.2653971 C15.1291828,71.3197037 16.6736509,66.9960537 20.7711811,65.2944471 Z" id="Rectangle" fill="#B76C00" transform="translate(91.161445, 79.470368) rotate(-28.000000) translate(-91.161445, -79.470368) "></path>
        <path d="M32.6223734,141.853602 C7.90675347,139.888628 4.88092343,133.47235 3.14610321,128.112803 C1.41128299,122.753256 1.06316405,113.835939 8.57494385,106.917969 C16.0867237,100 60.2277104,94.1736813 90.9966403,81.4285684 C121.76557,68.6834555 142.712101,55.6397193 154.121658,35.6979484 C159.405367,26.4630146 174.455578,24.8034958 181.260087,30.0703005 C189.149128,36.1765511 189.754507,49.5387773 185.341823,54.3841813 C181.391717,58.7216463 158.948027,82.4890815 125.991668,102.954198 C90.3777712,125.069582 45.4591278,142.874167 32.6223734,141.853602 Z" id="Path-3" stroke="#000000" stroke-width="2" fill="#D10707"></path>
        <path d="M24.3537783,142.176973 C36.3544686,153.301931 46.6078731,158.86441 55.1139917,158.86441 C96.5981992,158.86441 129.791279,143.853224 137.269237,140.665708 C144.747195,137.478193 173.639689,121.31269 188.73557,95.0588273 C197.940535,79.0500979 191.922261,54.9665793 184.097834,52.0537642 C180.421153,50.6850387 173.288495,53.8354613 169.446316,56.5149662 C153.315332,67.764587 143.215299,80.2886723 134.088321,85.9879366 C117.136972,96.5730627 113.850465,98.7477987 90.125518,104.041451 C66.4005705,109.335103 55.7413393,109.999032 40.1481769,118.011579 C31.5039403,122.453421 34.9355259,133.783407 32.7568364,142.176973 C32.4625877,143.310589 29.6615684,143.310589 24.3537783,142.176973 Z" id="Path" stroke="#000000" stroke-width="2" fill="#EBA33B"></path>
        <path d="M17.9463954,114.324158 C23.5515935,103.216234 29.6345049,96.8252544 36.1951296,95.1512191 C46.0360666,92.6401661 50.9563602,106.380225 64.0867161,102.550809 C77.217072,98.7213929 71.119959,85.3418002 81.1346451,82.0447884 C91.1493313,78.7477767 99.2056641,92.7702722 111.79056,86.8458601 C124.375456,80.9214479 116.007284,66.1065565 122.558324,62.5443532 C129.109365,58.98215 138.829927,73.8886382 148.643322,66.8067479 C158.456718,59.7248577 146.755154,47.1417861 152.556773,40.8958097 C156.424519,36.7318254 165.466812,34.2295487 179.683653,33.3889795" id="Path-4" stroke="#C7CF00" stroke-width="5"></path>
        <circle id="Oval" fill="#B36800" cx="46.5" cy="125.5" r="1.5"></circle>
        <circle id="Oval" fill="#B36800" cx="53.5" cy="129.5" r="1.5"></circle>
        <circle id="Oval" fill="#B36800" cx="58.5" cy="136.5" r="1.5"></circle>
        <circle id="Oval" fill="#B36800" cx="68.5" cy="126.5" r="1.5"></circle>
        <circle id="Oval" fill="#B36800" transform="translate(80.158795, 126.248190) rotate(13.000000) translate(-80.158795, -126.248190) " cx="80.1587953" cy="126.24819" r="1.5"></circle>
        <circle id="Oval" fill="#B36800" transform="translate(92.975991, 124.075752) rotate(13.000000) translate(-92.975991, -124.075752) " cx="92.9759914" cy="124.075752" r="1.5"></circle>
        <circle id="Oval" fill="#B36800" transform="translate(89.376775, 139.665673) rotate(13.000000) translate(-89.376775, -139.665673) " cx="89.3767745" cy="139.665673" r="1.5"></circle>
        <circle id="Oval" fill="#B36800" transform="translate(101.369986, 132.171483) rotate(13.000000) translate(-101.369986, -132.171483) " cx="101.369986" cy="132.171483" r="1.5"></circle>
        <circle id="Oval" fill="#B36800" transform="translate(118.916042, 112.052303) rotate(98.000000) translate(-118.916042, -112.052303) " cx="118.916042" cy="112.052303" r="1.5"></circle>
        <circle id="Oval" fill="#B36800" transform="translate(122.197306, 124.631385) rotate(98.000000) translate(-122.197306, -124.631385) " cx="122.197306" cy="124.631385" r="1.5"></circle>
        <circle id="Oval" fill="#B36800" transform="translate(106.353016, 122.404616) rotate(98.000000) translate(-106.353016, -122.404616) " cx="106.353016" cy="122.404616" r="1.5"></circle>
        <circle id="Oval" fill="#B36800" transform="translate(114.863966, 133.699027) rotate(98.000000) translate(-114.863966, -133.699027) " cx="114.863966" cy="133.699027" r="1.5"></circle>
        <circle id="Oval" fill="#B36800" transform="translate(178.740970, 59.987493) rotate(98.000000) translate(-178.740970, -59.987493) " cx="178.74097" cy="59.9874927" r="1.5"></circle>
        <circle id="Oval" fill="#B36800" transform="translate(182.022233, 72.566575) rotate(98.000000) translate(-182.022233, -72.566575) " cx="182.022233" cy="72.566575" r="1.5"></circle>
        <circle id="Oval" fill="#B36800" transform="translate(167.500000, 79.500000) rotate(98.000000) translate(-167.500000, -79.500000) " cx="167.5" cy="79.5" r="1.5"></circle>
        <circle id="Oval" fill="#B36800" transform="translate(174.688894, 81.634217) rotate(98.000000) translate(-174.688894, -81.634217) " cx="174.688894" cy="81.6342171" r="1.5"></circle>
        <circle id="Oval" fill="#B36800" transform="translate(174.378694, 74.404084) rotate(144.000000) translate(-174.378694, -74.404084) " cx="174.378694" cy="74.4040837" r="1.5"></circle>
        <circle id="Oval" fill="#B36800" transform="translate(167.609416, 85.502592) rotate(144.000000) translate(-167.609416, -85.502592) " cx="167.609416" cy="85.5025917" r="1.5"></circle>
        <circle id="Oval" fill="#B36800" transform="translate(84.500000, 138.500000) rotate(144.000000) translate(-84.500000, -138.500000) " cx="84.5" cy="138.5" r="1.5"></circle>
        <circle id="Oval" fill="#B36800" transform="translate(157.500000, 90.500000) rotate(144.000000) translate(-157.500000, -90.500000) " cx="157.5" cy="90.5" r="1.5"></circle>
        <circle id="Oval" fill="#B36800" cx="113.5" cy="120.5" r="1.5"></circle>
        <circle id="Oval" fill="#B36800" cx="99.5" cy="118.5" r="1.5"></circle>
        <circle id="Oval" fill="#B36800" cx="84.5905098" cy="118.022601" r="1.5"></circle>
        <circle id="Oval" fill="#B36800" cx="73.5" cy="133.5" r="1.5"></circle>
        <circle id="Oval" fill="#B36800" transform="translate(92.500000, 132.500000) rotate(-33.000000) translate(-92.500000, -132.500000) " cx="92.5" cy="132.5" r="1.5"></circle>
        <circle id="Oval" fill="#B36800" transform="translate(130.500000, 131.500000) rotate(-33.000000) translate(-130.500000, -131.500000) " cx="130.5" cy="131.5" r="1.5"></circle>
        <circle id="Oval" fill="#B36800" transform="translate(135.972809, 102.214505) rotate(-33.000000) translate(-135.972809, -102.214505) " cx="135.972809" cy="102.214505" r="1.5"></circle>
        <circle id="Oval" fill="#B36800" transform="translate(155.500000, 99.500000) rotate(-33.000000) translate(-155.500000, -99.500000) " cx="155.5" cy="99.5" r="1.5"></circle>
        <circle id="Oval" fill="#B36800" transform="translate(145.500000, 97.500000) rotate(-33.000000) translate(-145.500000, -97.500000) " cx="145.5" cy="97.5" r="1.5"></circle>
        <circle id="Oval" fill="#B36800" transform="translate(147.500000, 108.500000) rotate(-33.000000) translate(-147.500000, -108.500000) " cx="147.5" cy="108.5" r="1.5"></circle>
        <circle id="Oval" fill="#B36800" transform="translate(131.500000, 117.500000) rotate(-33.000000) translate(-131.500000, -117.500000) " cx="131.5" cy="117.5" r="1.5"></circle>
        <circle id="Oval" fill="#B36800" transform="translate(68.500000, 143.500000) rotate(-33.000000) translate(-68.500000, -143.500000) " cx="68.5" cy="143.5" r="1.5"></circle>
        <circle id="Oval" fill="#B36800" transform="translate(127.880135, 106.277586) rotate(-33.000000) translate(-127.880135, -106.277586) " cx="127.880135" cy="106.277586" r="1.5"></circle>
        <circle id="Oval" fill="#B36800" transform="translate(168.692496, 92.552827) rotate(-33.000000) translate(-168.692496, -92.552827) " cx="168.692496" cy="92.5528268" r="1.5"></circle>
        <circle id="Oval" fill="#B36800" transform="translate(160.262366, 101.604507) rotate(-33.000000) translate(-160.262366, -101.604507) " cx="160.262366" cy="101.604507" r="1.5"></circle>
        <circle id="Oval" fill="#B36800" transform="translate(149.817440, 116.734064) rotate(-33.000000) translate(-149.817440, -116.734064) " cx="149.81744" cy="116.734064" r="1.5"></circle>
        <circle id="Oval" fill="#B36800" transform="translate(141.724765, 120.797145) rotate(-33.000000) translate(-141.724765, -120.797145) " cx="141.724765" cy="120.797145" r="1.5"></circle>
        <circle id="Oval" fill="#B36800" cx="44.5" cy="140.5" r="1.5"></circle>
        <path d="M56.5,117.5 C58.5,116.522601 93.3455389,111.593698 127.880135,95.4250356 C145.879624,86.9979017 168.575105,61.4129344 170.884467,61.4654178 C173.193829,61.5182252 151.296832,87.9957517 127.880135,100.139541 C104.463438,112.28333 59.1252658,120.671297 49.2784196,122.404616 C44.9385448,123.168554 54.5,118.477399 56.5,117.5 Z" id="Path-5" fill-opacity="0.663980551" fill="#FFDC94"></path>
        <path d="M28.7648878,144.341588 C31.3614813,143.579088 46.3514379,153.600721 56.5,154.02616 C87.9903304,155.346271 115.628505,145.249691 130.5,139 C142.752635,133.850875 161.11882,121.928178 174.378694,106.47646 C182.399547,97.1297683 190.837992,75.1946267 192.111068,75.1946267 C193.384145,75.1946267 192.000029,86.6328929 189.493103,91.9768672 C186.343389,98.6910598 180.385848,105.697758 175.99152,110.574964 C171.627948,115.418036 166.521143,120.423965 158.187402,126.5 C156.178631,127.964572 151.368884,131.76349 147.742475,133.970464 C144.753447,135.789539 139.69761,138.431182 132.574964,141.895392 C120.486789,146.233039 111.74614,149.137413 106.353016,150.608515 C88.0542938,155.599924 73.6313908,157.502125 64.6296045,157.677886 C59.1436216,157.785 53.8839095,158.452577 48.6642753,156.833338 C44.2429907,155.461764 37.9042019,151.795737 33.54291,148.830422 C30.8694729,147.012708 27.7780937,144.631364 28.7648878,144.341588 Z" id="Path-6" fill="#E58700"></path>
        <path d="M6.65134916,116.522601 C6.65134916,116.522601 9.08141925,120.823413 13.9415594,129.425036" id="Path-7" stroke="#000000"></path>
        <path d="M6.65134916,126.5 L13.6863998,117" id="Path-8" stroke="#000000"></path>
    </g>
</svg>