<?xml version="1.0" encoding="UTF-8"?>
<svg width="200px" height="130px" viewBox="0 0 200 130" version="1.1" xmlns="http://www.w3.org/2000/svg" xmlns:xlink="http://www.w3.org/1999/xlink">
    <!-- Generator: Sketch 58 (84663) - https://sketch.com -->
    <title>Costume</title>
    <desc>Created with Sketch.</desc>
    <g id="Costume" stroke="none" stroke-width="1" fill="none" fill-rule="evenodd">
        <path d="M60.2761993,107.028655 C63.068192,106.685841 59.5259874,103.173288 59.6230611,99.3649097 C59.7081061,96.0284373 59.607339,91.6913975 60.8104212,87.1614609 C63.386748,77.46088 61.0921556,72.6731339 55.888903,71.2969933 C50.6856503,69.9208527 45.7943982,76.5415112 45.7943982,86.4826367 C45.7943982,96.4237622 45.6684841,108.822257 60.2761993,107.028655 Z" id="Oval" fill="#8B2F16" transform="translate(53.833095, 89.159700) rotate(-6.000000) translate(-53.833095, -89.159700) "></path>
        <path d="M143.481982,104.91237 C146.273974,104.569557 142.73177,101.057003 142.828843,97.248625 C142.913888,93.9121527 142.813121,89.5751129 144.016204,85.0451763 C146.59253,75.3445954 144.297938,70.5568492 139.094685,69.1807087 C133.891433,67.8045681 129.000181,74.4252265 129.000181,84.366352 C129.000181,94.3074775 128.874266,106.705972 143.481982,104.91237 Z" id="Oval" fill="#8B2F16" transform="translate(137.038877, 87.043415) rotate(-6.000000) translate(-137.038877, -87.043415) "></path>
        <path d="M96.5385342,77 C130.374227,77 163.116415,66.1754753 158.57689,45.7954868 C154.037366,25.4154983 130.374227,37.4870774 96.5385342,37.4870774 C62.7028413,37.4870774 34.969999,23.9618942 31.2690316,43.8752974 C27.5680643,63.7887006 62.7028413,77 96.5385342,77 Z" id="Oval" fill="#FF9E4F"></path>
        <path d="M40.0913184,44.0659068 C35.0060417,42.6297152 31.009243,40.8291131 28.1009222,38.6641005 C18.697028,31.6636523 9.65554318,20.4770875 8.32601134,21.4048289 C7.09466574,22.2640563 9.24858128,32.2862362 16.5482974,40.0651954 C19.3739278,43.0763349 25.1989045,47.05636 34.0232276,52.0052707 C32.5645833,54.3681153 31.6452779,56.1715006 31.2653113,57.4154265 C30.8853447,58.6593525 30.6851758,60.520877 30.6648045,63 L149.101413,63 C149.033048,60.3448547 149.286664,57.9138138 149.862261,55.7068775 C150.437858,53.4999411 151.555253,49.8842171 153.214446,44.8597054 C166.526919,43.8412516 175.652056,42.0152044 180.589857,39.381564 C187.996558,35.4311032 191.73996,26.8787692 190.878297,24.285031 C185.61257,21.4048289 178.121977,24.5903344 170.780658,20.0325529 C163.439339,15.4747714 160.311445,8 148.233247,8 C142.224652,8 134.050586,14.2719529 129.748814,25.9214572 C128.773452,28.5628057 128.415417,33.049508 128.674709,39.381564 C120.650975,43.8025894 110.926071,46.3152109 99.5,46.9194284 C89.5281834,47.4467441 67.5422382,44.0659068 50.3266922,41.5460886 C48.2175322,41.2373735 44.805741,42.0773129 40.0913184,44.0659068 Z" id="Path-29" fill="#CC5332"></path>
        <path d="M92.5385342,99 C126.374227,99 159.116415,88.1754753 154.57689,67.7954868 C150.037366,47.4154983 126.374227,59.4870774 92.5385342,59.4870774 C58.7028413,59.4870774 30.969999,45.9618942 27.2690316,65.8752974 C23.5680643,85.7887006 58.7028413,99 92.5385342,99 Z" id="Oval" fill="#FF9E4F"></path>
        <path d="M49.8561217,107.435233 C52.6481144,107.092419 49.1059099,103.579866 49.2029835,99.7714875 C49.2880285,96.4350152 49.5596255,95.1306376 50.7627077,90.600701 C53.3390345,80.9001201 51.2881808,78.0974662 46.0849282,76.7213257 C40.8816755,75.3451851 37.596689,80.0734421 37.596689,90.0145676 C37.596689,99.9556931 38.6835,108.807058 49.8561217,107.435233 Z" id="Oval" fill="#CC5332" transform="translate(44.734691, 92.031773) rotate(7.000000) translate(-44.734691, -92.031773) "></path>
        <path d="M130.427962,111.729743 C133.910656,110.917065 130.298852,107.034273 129.913422,103.349901 C129.464117,99.0549496 129.516797,98.1725392 130.083173,94.1425642 C130.963399,87.8794358 131.629491,84.0664673 126.426238,82.6903268 C121.222985,81.3141862 117.04644,85.3880232 117.04644,95.3291487 C117.04644,105.270274 116.248547,109.736805 130.427962,111.729743 Z" id="Oval" fill="#CC5332" transform="translate(124.484194, 97.080146) rotate(-18.000000) translate(-124.484194, -97.080146) "></path>
        <path d="M136.90893,45.9827173 C145.749417,45.5213876 148.661291,38.4837947 146.114953,28.9542631 C143.568615,19.4247314 142.873257,10 136.90893,10 C130.944603,10 129.170416,17.8947759 127.509061,27.7475885 C125.847706,37.6004012 128.068443,46.4440471 136.90893,45.9827173 Z" id="Oval" fill="#8B2F16" transform="translate(137.000000, 28.000000) rotate(16.000000) translate(-137.000000, -28.000000) "></path>
        <circle id="Oval" fill="#292929" cx="153.5" cy="19.5" r="3.5"></circle>
        <circle id="Oval" fill="#FFFFFF" cx="153" cy="19" r="1"></circle>
        <path d="M170.02433,42.835923 C169.232178,43.1725234 168.094018,42.8433739 166.609848,41.8484745 C164.383594,40.3561254 163.187535,38.1349091 162.857432,37.520686 C161.815002,35.5810369 163.927715,34.1671863 165.170458,36.0610919 C165.685703,36.8463106 168.037334,39.3167896 169.516465,40.3627909 C170.502553,41.0601251 172.038277,41.4946154 174.123637,41.6662619 L170.02433,42.835923 Z" id="Path-30" fill="#8B2F16"></path>
        <path d="M181.284358,24.2254802 C182.420994,22.6530529 189.340681,22.5310977 190.565473,24.2254802 C191.790264,25.9198627 189.284358,30.6452489 185.924916,30.6452489 C182.565473,30.6452489 180.147723,25.7979075 181.284358,24.2254802 Z" id="Path-31" fill="#8B2F16"></path>
        <path d="" id="Path-32" stroke="#979797"></path>
        <path d="M128.745111,49.3128152 C126.850258,53.2491317 124.499276,55.1448599 121.692164,55 C117.481495,54.7827101 118.213015,49.8067227 114.065594,49.8067227 C109.918173,49.8067227 109.590147,55 105.145873,55 C100.7016,55 101.098594,49.8067227 96.2861871,49.8067227 C91.4737804,49.8067227 91.1492842,55.4961005 85.961572,55 C80.7738597,54.5038995 82.1679079,48.4177656 78.0111669,48.0590841 C73.854426,47.7004026 72.8663647,54.0620873 66.9810371,53.3621865 C61.0957096,52.6622856 62.468612,45.9820745 57.961405,45.6747061 C53.4541979,45.3673378 51.9753171,52.2931002 47.1381093,52.0090006 C43.9133041,51.8196009 41.4979024,49.3544158 39.8919043,44.6134455" id="Line" stroke="#ECFF00" stroke-width="4" stroke-linecap="square"></path>
    </g>
</svg>