<?xml version="1.0" encoding="UTF-8"?>
<svg width="16px" height="16px" viewBox="0 0 16 16" version="1.1" xmlns="http://www.w3.org/2000/svg" xmlns:xlink="http://www.w3.org/1999/xlink">
    <!-- Generator: Sketch 58 (84663) - https://sketch.com -->
    <title>Doge</title>
    <desc>Created with Sketch.</desc>
    <g id="Doge" stroke="none" stroke-width="1" fill="none" fill-rule="evenodd">
        <g id="Group">
            <path d="M7.46666667,2.51856175 C6.73598057,2.21812212 6.17114033,1.95095644 5.77214595,1.7170647 C4.35819001,0.888199375 2.93577598,0 1.92178853,0 C0.72384947,0 0.736017032,1.09590156 2.26716452,3.02997094 C2.47613672,3.29393423 2.89826294,3.68745269 3.53354318,4.21052632 L7.46666667,2.51856175 Z" id="Path-41" fill="#DCB055"></path>
            <path d="M10.6666667,3.2184536 C12.6009929,0.523218154 13.870005,-0.479210354 14.4737029,0.211168074 C15.0774007,0.901546501 15.0864071,3.35747293 14.500722,7.57894737 L10.6666667,3.2184536 Z" id="Path-42" fill="#DCB055"></path>
            <ellipse id="Oval" fill="#DCB055" cx="8" cy="9.26315789" rx="8" ry="6.73684211"></ellipse>
            <ellipse id="Oval" fill-opacity="0.52420236" fill="#DFBF7A" cx="8" cy="8.84210526" rx="6.93333333" ry="6.31578947"></ellipse>
            <path d="M8.20376158,15.1578947 C12.5041449,15.1578947 14.9333333,11.8483121 14.9333333,9.3325773 C14.9333333,8.07295929 13.9229124,7.37563741 11.8857999,7.63141327 C9.84868734,7.88718913 8.09094629,8.93837548 6.52408367,8.93837548 C3.38599106,8.93837548 1.06666667,7.12809741 1.06666667,9.64383224 C1.06666667,12.1595671 3.90337829,15.1578947 8.20376158,15.1578947 Z" id="Oval" fill="#DCC38D"></path>
            <path d="M5.23044544,5.90444752 L5.75747962,5.89473684 C6.10871611,6.47899809 6.37283632,7.09045527 6.54984025,7.72910838 C6.80867441,8.66301553 7.06755779,9.31835104 7.33208217,10.1245758 C7.50843175,10.662059 7.51147474,10.9363232 7.34121112,10.9473684 L3.2,10.6986533 C3.56995256,9.47055256 3.87023727,8.48070427 4.10085412,7.72910838 C4.33147098,6.97751249 4.70800142,6.36929221 5.23044544,5.90444752 Z" id="Path-35" fill="#E5CF85"></path>
            <path d="M2.4017585,13.5010064 C2.25127603,12.9243094 2.16324146,12.442519 2.13765478,12.0556354 C2.11206811,11.6687518 2.20010268,11.0186277 2.4017585,10.1052632 L4.36498221,10.4637986 C5.21974446,11.0669533 5.82768666,11.6813721 6.1888088,12.3070551 C6.54993093,12.9327381 6.97588356,13.883018 7.46666667,15.1578947 C6.88519381,15.1350222 6.45924118,15.1045953 6.1888088,15.066614 C5.70380095,14.9984965 5.24652505,14.8647971 4.82192329,14.7710954 C4.04219511,14.5990238 3.23547351,14.1756608 2.4017585,13.5010064 Z" id="Path-33" fill-opacity="0.556463068" fill="#BB923E"></path>
            <path d="M3.69070948,10.9473684 C4.67582466,10.9473684 5.74690333,10.417453 5.17188007,9.55354663 C4.5968568,8.68964027 4.67582466,8.42105263 3.69070948,8.42105263 C2.7055943,8.42105263 2.54862593,8.47011172 2.21005306,9.15591845 C1.87148019,9.84172518 2.7055943,10.9473684 3.69070948,10.9473684 Z" id="Oval" fill="#B49E7F"></path>
            <path d="M4.75462694,10.9473684 C6.34653938,10.9473684 7.46666667,10.776564 7.46666667,10.6095937 C7.46666667,10.4426233 6.69490989,10.6095937 5.10299746,10.6095937 C4.51142249,10.6095937 4.2963138,10.3145363 3.44717985,10.1746181 C2.5980459,10.0346999 2.30576482,10.1266589 2.16108792,10.2719654 C1.93085266,10.5032026 3.1627145,10.9473684 4.75462694,10.9473684 Z" id="Oval" fill="#A28562"></path>
            <path d="M2.39441087,10.2750106 C2.63981637,10.2858606 2.87783559,10.358213 3.17769117,10.4850866 C3.47754676,10.6119602 3.90138895,10.5215494 4.05098689,10.6052632 C4.20058482,10.6889769 4.34620831,10.7211898 4.05098689,10.7914639 C3.75576546,10.8617381 3.66621913,10.7884787 3.17769117,10.6409911 C2.68916322,10.4935035 2.69044591,10.6714616 2.5171344,10.4618255 C2.34382288,10.2521894 2.14900537,10.2641606 2.39441087,10.2750106 Z" id="Path-34" fill="#593E23"></path>
            <path d="M2.9066209,7.57894737 C3.34301214,7.57894737 4.13116807,8.04317298 4.2486755,8.2376383 C4.36618294,8.43210362 3.87978853,9.26315789 3.61037754,9.26315789 C3.34096656,9.26315789 2.9066209,9.26315789 2.63433094,9.26315789 C2.36204099,9.26315789 2.36204099,9.15360065 2.21059201,8.93472836 C2.10758044,8.73588407 2.10758044,8.42105263 2.21059201,8.04317298 C2.36603297,7.74039258 2.47022965,7.57894737 2.9066209,7.57894737 Z" id="Path-36" fill="#2F2F2F"></path>
            <path d="M2.49993896,8.15805377 C2.61560308,8.15805377 2.88638761,8.48275028 2.76080228,8.68333133 C2.63521695,8.88391238 2.34800865,8.90597428 2.234492,8.68183276 C2.12097536,8.45769124 2.38427483,8.15805377 2.49993896,8.15805377 Z" id="Path-37" fill="#000000"></path>
            <path d="M3.59288683,8.141971 C3.38482954,8.11878294 3.11910699,8.39063305 3.11910699,8.69062986 C3.11910699,8.82132282 3.28300921,8.6888433 3.59288683,8.782747 C3.99431225,8.90439287 4.14159091,8.79668574 3.90933663,8.41897256 C3.67708235,8.04125937 3.80094412,8.16515907 3.59288683,8.141971 Z" id="Path-38" fill="#000000"></path>
            <path d="M3.36721801,7.00123396 C3.9302711,6.80503539 4.26666667,6.42549246 4.26666667,6.30278436 C4.26666667,6.18007627 4.00812757,5.94347054 3.4571402,5.74850207 C2.90615282,5.55353361 2.27861794,5.60433477 2.27861794,6.30278436 C2.27861794,7.00123396 2.80416492,7.19743253 3.36721801,7.00123396 Z" id="Oval" fill="#000000"></path>
            <path d="M3,6.90425986 C3.12316895,6.90425986 2.65921021,6.65471153 2.65921021,6.39861899 C2.65921021,6.14252646 3.06946724,5.89473684 2.89791878,5.89473684 C2.72637032,5.89473684 2.3905881,6.06039588 2.3905881,6.39861899 C2.3905881,6.73684211 2.87683105,6.90425986 3,6.90425986 Z" id="Oval" fill="#FFFFFF"></path>
            <path d="M8.53333333,7.57894737 C9.12243707,7.57894737 9.6,6.89496335 9.6,6.83618525 C9.6,6.77740715 9.12243707,5.89473684 8.53333333,5.89473684 C7.9442296,5.89473684 7.46666667,6.77740715 7.46666667,6.83618525 C7.46666667,6.89496335 7.9442296,7.57894737 8.53333333,7.57894737 Z" id="Oval" fill="#000000"></path>
            <polygon id="Path-39" fill="#FFFFFF" points="9.5 6.76914056 9.17906439 6.58552488 9.17906439 7.02454591"></polygon>
            <path d="M8.3847574,7.32120816 C8.81157999,7.32120816 8.13434193,7.0380193 8.13434193,6.80547836 C8.13434193,6.57293741 8.80592657,6.20149222 8.37910398,6.20149222 C7.95228138,6.20149222 7.72767694,6.57293741 7.72767694,6.80547836 C7.72767694,7.0380193 7.95793481,7.32120816 8.3847574,7.32120816 Z" id="Oval" fill="#FFFFFF"></path>
            <path d="M5.33333333,5.05263158 C5.62125078,4.34407494 5.87250248,3.83436375 6.08708846,3.52349801 C6.30167443,3.21263227 6.63171539,2.8802382 7.07721135,2.52631579 C7.81718391,2.55181889 8.31854274,2.58812868 8.58128786,2.63524516 C8.84403297,2.68236163 9.18360369,2.77790268 9.6,2.92186828 C8.10174157,3.03610149 7.06379503,3.32530329 6.48616036,3.78947368 C5.90852569,4.25364408 5.52425002,4.67469671 5.33333333,5.05263158 Z" id="Path-40" fill="#CEA840"></path>
            <path d="M3.09642539,3.36842105 C3.42655165,3.06712983 3.73889758,2.86249187 4.03346319,2.75450717 C4.3280288,2.64652247 4.76131885,2.5205478 5.33333333,2.37658316 C4.83531856,1.9321096 4.40202851,1.61637277 4.03346319,1.42937269 C3.48061521,1.14887257 2.61736948,0.842105263 2.30897455,0.842105263 C2.00057962,0.842105263 2.16262227,1.56217914 2.30897455,1.99977748 C2.40654273,2.29150971 2.66902635,2.74772423 3.09642539,3.36842105 Z" id="Path-43" fill="#BE8E58"></path>
            <path d="M11.7333333,2.77377182 C12.1022464,2.951652 12.4086646,3.1355838 12.6525877,3.3255672 C12.8965109,3.5155506 13.2049845,3.81053698 13.5780086,4.21052632 C13.7701893,3.43301937 13.8662796,2.81756587 13.8662796,2.36416581 C13.8662796,1.68406572 13.8894115,1.06111999 13.5780086,0.876776399 C13.2666056,0.692432811 12.7864654,1.28614779 12.4368422,1.64568726 C12.2037601,1.88538024 11.9692571,2.26140843 11.7333333,2.77377182 Z" id="Path-44" fill="#BE8E58"></path>
        </g>
    </g>
</svg>