<?xml version="1.0" encoding="UTF-8"?>
<svg width="200px" height="130px" viewBox="0 0 200 130" version="1.1" xmlns="http://www.w3.org/2000/svg" xmlns:xlink="http://www.w3.org/1999/xlink">
    <!-- Generator: Sketch 58 (84663) - https://sketch.com -->
    <title>Artboard</title>
    <desc>Created with Sketch.</desc>
    <g id="Artboard" stroke="none" stroke-width="1" fill="none" fill-rule="evenodd">
        <g id="Group" transform="translate(100.000000, 65.000000) scale(-1, 1) translate(-100.000000, -65.000000) translate(5.000000, 15.000000)" fill="#5A2600">
            <path d="M45,3.02285452 C40.4427753,-0.368465272 34.6002745,-0.90626122 27.4724975,1.40946667 C23.3194467,2.7587423 18.7050131,8.69296653 13.1806889,12.1417131 C9.22375411,14.6119637 -0.855309374,15.0353254 0.0582315453,20.387388 C0.361989145,22.1669796 2.57058343,25.5362116 6.11351364,26.8023325 C8.48722472,27.6506148 13.5884586,28.0482819 21.4172154,27.9953339 C24.1722023,25.902395 27.402222,22.8942329 31.1072745,18.9708478 C33.660445,16.2672231 34.5048398,10.1885771 38.4690336,5.71389965 C39.6613506,4.36804362 41.8383394,3.47102858 45,3.02285452 Z" id="Path-22"></path>
            <path d="M40.8251327,43.9425066 C45.5195531,43.9425066 53.0667132,37.607183 51.4962734,26.5535874 C49.9258335,15.4999917 44.2378751,3.24299629 37.8226131,3.92967234 C35.3129801,4.19829813 32.4587074,5.3756609 31.3497176,9.06203569 C30.388934,12.255761 32.2679521,17.6055761 30.9913876,22.9639837 C29.7148232,28.3223912 25.6366275,33.2634071 26.840961,36.6501211 C28.439109,41.1442834 38.1480843,43.9425066 40.8251327,43.9425066 Z" id="Oval" transform="translate(39.164336, 23.922294) rotate(27.000000) translate(-39.164336, -23.922294) "></path>
            <path d="M53.4684873,24 C51.465233,32.2096604 49.326921,37.5380473 47.0535514,39.9851607 C44.7801817,42.4322742 40.428998,44.0893473 34,44.95638 C35.6022493,54.5798659 37.5368199,61.332331 39.8037119,65.2137754 C42.0706039,69.0952198 46.2123944,72.7468933 52.2290836,76.1687957 C52.5859927,70.6030973 53.2938742,68.0721897 54.3527281,68.5760729 C55.9410088,69.3318978 54.1300964,97.9649664 59.2799605,97.9649664 C64.4298246,97.9649664 64.4298246,69.3318978 66.2685005,69.3318978 C67.4942844,69.3318978 67.7495688,72.5007557 67.0343535,78.8384715 L158.346352,78.8384715 C154.796555,76.6166793 152.535315,74.9540736 151.562633,73.8506543 C147.864752,69.6557424 148.590499,66.5228867 149.813534,66.8387727 C150.950906,67.1325337 153.682618,72.2882451 157.084947,75.009725 C161.335764,78.4098997 165.684807,79.7541268 167.18614,81.1216162 C169.889133,83.5836361 169.546682,85.1905835 169.28726,86.9503994 C168.034934,95.4456563 165.856366,100 168.388875,100 C172.974565,100 180.91458,83.7162614 181.851021,81.1216162 C182.787463,78.5269709 179.061053,77.6616412 177.590113,73.8506543 C176.119172,70.0396674 179.527987,63.9576875 179.836859,58.1888354 C180.042774,54.3429339 179.784172,50.4058892 179.061053,46.3777011 C176.826791,43.0772133 174.960177,40.9463665 173.461211,39.9851607 C171.962245,39.023955 169.333794,38.2723599 165.575858,37.7303754 L71.8557704,36.6762949 C66.1942148,35.88746 62.4964332,34.686428 60.7624257,33.073199 C59.0284181,31.4599699 56.5971054,28.4355703 53.4684873,24 Z" id="Path-23"></path>
            <path d="M169,36.0881761 L176.606275,40 C181.016273,36.3681568 183.979665,33.306507 185.49645,30.8150503 C187.771628,27.0778654 191.05758,17.5289916 189.668839,17.0208333 C188.280098,16.512675 183.108264,25.4394169 179.365255,28.6254858 C176.869915,30.7495318 173.41483,33.2370953 169,36.0881761 Z" id="Path-24"></path>
        </g>
    </g>
</svg>